/* XPM */
static char *result[] = {
/* columns rows colors chars-per-pixel */
"64 64 63 1 ",
"  c gray1",
". c #040404",
"X c gray2",
"o c #060606",
"O c #070707",
"+ c gray3",
"@ c #090909",
"# c gray4",
"$ c #0B0B0B",
"% c #0C0C0C",
"& c gray5",
"* c #0E0E0E",
"= c gray6",
"- c #101010",
"; c #111111",
": c gray7",
"> c #131313",
", c gray8",
"< c #151515",
"1 c #161616",
"2 c gray9",
"3 c #181818",
"4 c #191919",
"5 c gray10",
"6 c #1B1B1B",
"7 c gray11",
"8 c #1D1D1D",
"9 c #1E1E1E",
"0 c gray12",
"q c #202020",
"w c gray13",
"e c #222222",
"r c #232323",
"t c gray14",
"y c #252525",
"u c gray15",
"i c #272727",
"p c #282828",
"a c gray16",
"s c #2A2A2A",
"d c gray17",
"f c #2C2C2C",
"g c #2D2D2D",
"h c gray18",
"j c #2F2F2F",
"k c gray19",
"l c #313131",
"z c #323232",
"x c gray20",
"c c #353535",
"v c gray21",
"b c #373737",
"n c gray22",
"m c #393939",
"M c #3A3A3A",
"N c gray23",
"B c #3C3C3C",
"V c gray24",
"C c #3F3F3F",
"Z c gray25",
"A c #414141",
"S c #4B4B4B",
"D c #4C4C4C",
/* pixels */
"$+#@++O>$####>-;<**#oX#=;1#$$*&#&$+*>-+-*=#&&54=$>:%%*&*##+&$+#+",
"=.%*+%;%$Xo%$$#O$O#$-;#$-% O...o@;$%$%*#&%+o#&=@+#$&#X$&;:*%$.+$",
"=&*;<<7pvk3@$*;2t5$:46;2&,>+,ei7>*&;650e>;46r=:*ry;$>:2*;==-0-%#",
"=::12;4797<*#***1<,;*=*:$%2*;,>;4>-&2<:-=><=$#%O##$%#=:=&$$%-#%%",
"+#+$o$-&&#O>$$*%&*O#-##122-&;>-;X*:+<>>-;=&$*--oo.&%#o#&4,#O#o=*",
"=1;-=$$@#&>O%%+##+#&$$@@+#$&-@O,<=+=21<>--*%-&%%*,w$:>=;*+%;#+&&",
",-.$>=.&+o$-+oo$+;*->$>#ooo@#%+oO$$*,=-&O$@O#@#OX$##$++@+$$#&%=:",
"#;&2:88q3O,-<5,,9&;;2,5;66&$78<24&*-8w091thae845842>%%$@@O*82<<2",
"o-<*:<&&;*+O#%O%<>%#$*;&:<%o>322=;=$-2*$$$:y,-+=:*O%@*@*$$$$&@>>",
">4*#*,226>$%$$202w4rw3;=2<>72<3=492@@#$--;*%->:=;;=##$;*439,1&,:",
"6>23223>$#->*#$%=>&&#=%O:*$<%=<-63,O%%+>=@+*&#oOooOO++<oOO+.+&#+",
"==#+#=-77%1*#@=%--44<;>>==260q-72<-rrau0@$@&*r6r2@;;*&<<=2583;#4",
">1=$#=;2>&54=>8=;*&,23;<>21-%*&>-*46=>1,&-O@#&-&-#<=$%&-<a24>%=&",
"=:=*&*&O,=5*$8>$>249<1>2>&:&*#o=<<@;&*#<-=&==#4<2*<,==>2#:*:--@:",
"#=+>t-$3<>>2$&#=$1><do$-@y:#7979&>22=;1fMe=#<;;:<%%*=#@;-<843=>3",
"+@+w2<-,#O#=#&$*22,<2,ie<82;27yt<-&#$--<hjq=-;=$;$,&#X%@$=08r<=&",
"$<+==;*2$<-$$+6,>-:=21&80t81=>#<3w5dr8<=*&5h13>+<43&-4$2&6d2-24>",
"#<--#*;<582&>+;3893te4*0288w<&;74>uNs8<212<2>:82<<,=;<4,:*&;24et",
"O+@o$$*-;4<$1&&+$%2=2,%;>;2%#:>362<t241>&-:=*#*=*>%*,;=%&=&&$,74",
"-=%#%==>:582878emdqqAp8-*&*&-&4;>u-&,15><7ug<:V<#$4->&=%$&&-==%&",
"OOOo=;-$+*:-8qa5gr7>-%;%$O$,8><4*8:*;-2:;7:*%@3<q4%=>-1<=*&+:#-;",
"#%%2-=;4239<>>;*$$%$*8rq82e4#2974><2*;%;<=:429#;<<:+%%-$%+##:-:*",
"%;&8&>;<<<*$:4,&#$$$7yj8in82420:=<61-$$*%>47fb:%+O&:5<:;2-#$:$&%",
";=%$#@o++O@:8262<=2<<w82224&&41>>#=<2&&#*<5twd&;&@;::##o,;%&3&%*",
"4<*3o+$@+XX$o=2==>$$,=-;&&;88<1$>6q<&*9484*480%:84&,<@,-*O.+>-$+",
"--#+$:w2<3s5:eqiu=34>sseyj5r,721d03yjr856i5<,t151utt94a7=2$$=<>t",
"+oO+O4002>8r;<=$,-><9121;12432<==*41;&<273+**3%->81s8<r:2>1:>2;9",
">=+#<;-*%-;6-40qw2$<g5-8455<=85492h22784<VBNj=04,@*<%=7>@%:-$#74",
"92=2>4%2$O+@#5>;:;*ja447&=2>17,<7$@+%867ukjpy<22;;<-2*;;;,&&=8g8",
"95&;<%=*O.Oo;*:5>2*>54>2-&96rq4,*&rl77,9qr8>3*>>**+%-@*;*-++@+,9",
"34<,;&8y8qk3*$%>&-215>4us3c82pMZ400w447r97<w2qr%-7->779&33222&$*",
":>-&48>$#=<>&@+###=*-@%%&-3=&&<65y80<=;,,1%==>;,3>&@*w&&=<--$@++",
"41,*t9;=$;&-2>=;<#>>>,942&-**$+&&-2t91;,37-<<15>65*>$4>><54=@++*",
"@*=X#>:$&%:#$:<-*%142<,22O$O+rxe*2<><81<<<yi,%3>-0-*&;=<$<%%==>1",
"c7==-8##4,$&O*>5%-y97<w;&;:;2d<,468agif2%4w,u85466eg3>2=-$<-<&4:",
"1*O@0<7=8ei-:=$%4yOr92<2*;1>&<$<2@;>*50>,*w5>&>8<-==$4;,,-;<>42-",
"*-%$110yxqc0;%$=584Ck84926>>%1@+%<;,8ysr8169e464<,<#*,:21q366r81",
"@$%&22a8<;=*3===%-2-35$=3>264>=#0>62-5328-36=76<-2>%*<<2%;e2,<$<",
"8r23<4>%$+<=>f8>%,5%9452a8s9-yltpr8aq82w8Bhasug9r445t6>52y12$#$%",
"5,=O$;$+O#-;=->->=##8e7:**48<04ut8888>>*0gzufte214j6;o#>1y84::*+",
":=%=<*$+@>+%$&#@$$=*>3>*&<*>*>=-&5<2%$$$>3=8>66,03<$o*$#+>=##-=<",
"y:;228:>@8lwifs-<<e<$%<4mt8V8fp572rwsbBsi098x1*2-96lDuy;16744-4>",
";-#4$=+-#>*;22e6;===:$><<4;t7<24384>-wp7><256O$*%@$*-@$-1>,;&$@$",
"xa4uf=&w2fclf0ffp9bxhlc4w7;,<5esu5w,4795552r94qd,fdq;,84e00fepug",
"6w5-1><e$7441#&,:<4<>67><,O>-$2<:%&%4;321*;&>*,-@==-+1><29;3289u",
"wylph0869;sii<93ie6-wgeyyanh<ayM;;22;76852#$ms2fr787qr6=%<<9ki82",
"<6<581>7y#,21&%-==;<s<:=<42=2r<%=&>32r868g9d028w68413<0;*31;-;=-",
":137928<:@874O&%=;1;dt7235>:>8a,050q4r01<,:apq;w0877556$-5;>;-->",
"+;><2-*2&o;37o$+++O$2<$=&=$Oo>>;4;#o%;--;:#>9wO->,-;;=;=%#$$=&%@",
":5;,>*,22,9apBqnzr:ttr:8qs;r2q8w<w03,<419uye7t2<50917487<=80<*:q",
"*&-+**<4;&<>>4-6w55:=>;9884=:2O>-6>$>#2#O$;##;;%,2--2-@;<=-<5839",
",6-41wa6r624;e8ptiaut9w2>9frur4irzaqtwa,quwpi5i8i40842qiyqee6<41",
"$4=@:t787=24%<,6#;868y4%p;:>2&;dq77<822;e<:2<$r6e,;461%880$>,1;<",
"<4><5ujt-7<233r38z24e94700a<iq86;50gj8%;w2<<ww2*e91<8,4y2p26q2<6",
"24q>9tw7*--=4#2>&-$=+,;#%;-wtq*q270&3i>4*<37<><>4443@3=3$>-$-2-=",
"8<4;8r*2t038pxtv4pks-sjMCSa49=48q0p<65480fe6693z75<>Oa53$>-2905&",
"42=<5455632jstag,>57<<ryh69<*<22:81>8=2;$17>%2=<>&24X,3>1>-<:&87",
"=>4X<<-->>>#4q5=rw<0rpi31xq8i7zgfg,04>72<1;p55666>36-<8&=>66<<88",
"8tj#*=;>$%11jps;2wrs88q<->-36zzNcV4e4>0<;1;wp--=;&49w>q=$#5&@%&&",
"8y5+#OXO#$#O=:%*>3#,=#%*;;=o@>03;>=><,-=288ee;:8-%%%*;,4;*$%<449",
"6*8;2%=0141f2*@$=$-;;-&14484>&$&,,<=14<16q1>7&<:;<2$++;><@%O4<-4",
"-+#$;<$%=&%>$Oo#<&$$+$$#@,2<$--6<279:w2349>2;=4=<5<*6w8:2438>634",
">1542<>;&2=<19<=%8558=422t43$=,2>wyr47>3=;*;><2=881=&;=<1><-*,>2",
"*2;;%;%%#<*>-<<3-9844,23=785=2<&1>:g;8<>>1ei=4008;p94%2790&:>:gr"
};
