/* XPM */
static char *result[] = {
/* columns rows colors chars-per-pixel */
"64 64 190 2 ",
"   c #040406",
".  c #0B0406",
"X  c #02060C",
"o  c #0B0709",
"O  c #03090E",
"+  c #0B0A0C",
"@  c #130606",
"#  c #1B0606",
"$  c #150807",
"%  c #1C0807",
"&  c #130709",
"*  c #1B0708",
"=  c #140B0C",
"-  c #1C0B0C",
";  c #13100E",
":  c #1B100F",
">  c #010710",
",  c #030B12",
"<  c #0B0D13",
"1  c #050D1A",
"2  c #0B0F18",
"3  c #130E12",
"4  c #1A0E12",
"5  c #051116",
"6  c #0C1215",
"7  c #04131B",
"8  c #0C141A",
"9  c #06191E",
"0  c #0C1A1D",
"q  c #131214",
"w  c #1C1313",
"e  c #101815",
"r  c #191817",
"t  c #13141B",
"y  c #1A161C",
"u  c #141B1C",
"i  c #1B1A1C",
"p  c #220606",
"a  c #290706",
"s  c #210807",
"d  c #2C0907",
"f  c #200709",
"g  c #230C0C",
"h  c #2B0C0C",
"j  c #340707",
"k  c #350807",
"l  c #380807",
"z  c #330D0C",
"x  c #3B0C0B",
"c  c #22110F",
"v  c #2C110E",
"b  c #33120E",
"n  c #3B120E",
"m  c #240E11",
"M  c #2B0F12",
"N  c #330F11",
"B  c #231313",
"V  c #2B1412",
"C  c #251A16",
"Z  c #2A1B16",
"A  c #251719",
"S  c #251B1B",
"D  c #2B1B19",
"F  c #331412",
"G  c #3C1411",
"H  c #341A15",
"J  c #3C1C16",
"K  c #311C1A",
"L  c #14241E",
"P  c #1D221D",
"I  c #22211F",
"U  c #312017",
"Y  c #3B2117",
"T  c #34241C",
"R  c #3A251B",
"E  c #35281A",
"W  c #3D2C1E",
"Q  c #071721",
"!  c #0C1524",
"~  c #061B20",
"^  c #0B1D21",
"/  c #0E1728",
"(  c #0D1A2A",
")  c #131620",
"_  c #1B1720",
"`  c #151C22",
"'  c #1C1B22",
"]  c #101C2B",
"[  c #101F30",
"{  c #231D22",
"}  c #291F22",
"|  c #072123",
" . c #0C2325",
".. c #0E2927",
"X. c #0B2628",
"o. c #0C2828",
"O. c #142323",
"+. c #1C2423",
"@. c #172825",
"#. c #1C2C24",
"$. c #12232D",
"%. c #1B2229",
"&. c #152B28",
"*. c #1B2D2A",
"=. c #1F3025",
"-. c #13302D",
";. c #1F312B",
":. c #122031",
">. c #1B2C39",
",. c #232324",
"<. c #2C2324",
"1. c #232C24",
"2. c #2C2825",
"3. c #232329",
"4. c #2E2629",
"5. c #242C28",
"6. c #2C2A2C",
"7. c #332626",
"8. c #3B2722",
"9. c #342826",
"0. c #3B2A24",
"q. c #362C2A",
"w. c #3A2D2A",
"e. c #253125",
"r. c #24322A",
"t. c #29342A",
"y. c #26382C",
"u. c #2D3A2D",
"i. c #3E3021",
"p. c #343B26",
"a. c #3D332D",
"s. c #2C3B34",
"d. c #313035",
"f. c #420D0A",
"g. c #490E0B",
"h. c #520E09",
"j. c #43120E",
"k. c #4C120C",
"l. c #53140D",
"z. c #5B150C",
"x. c #53190F",
"c. c #5C190F",
"v. c #431511",
"b. c #4A1611",
"n. c #441A14",
"m. c #4B1B14",
"M. c #411F18",
"N. c #541711",
"B. c #531D13",
"V. c #591E14",
"C. c #452317",
"Z. c #4C2116",
"A. c #44241A",
"S. c #49241A",
"D. c #432B1C",
"F. c #4C2B1D",
"G. c #542216",
"H. c #5A2416",
"J. c #562418",
"K. c #5C2618",
"L. c #5B291A",
"P. c #48301F",
"I. c #57301D",
"U. c #5A311E",
"Y. c #652715",
"T. c #612A17",
"R. c #602C1B",
"E. c #692B19",
"W. c #63311E",
"Q. c #432D22",
"!. c #4F2D20",
"~. c #4B3520",
"^. c #4C3B23",
"/. c #40332C",
"(. c #4C3428",
"). c #563722",
"_. c #593722",
"`. c #533D24",
"'. c #5B3922",
"]. c #433930",
"[. c #623B23",
"{. c #3B4029",
"}. c #45462A",
"|. c #544127",
" X c #5B472B",
".X c #4E4135",
"XX c #644127",
"oX c #6D4227",
"OX c #664128",
"+X c #6D4228",
/* pixels */
". . . . . . . @ . @ . $ . $ $ $ # c s # $ # # # % % % % s s s s h h s h k k # p # % # # p p @ @ @ @ $ $ # % % % $ $ $ o . . $ . ",
"                    O   o o . . + : : : = + ; ; = = o = + = @ + + + + + X + o o +   o   . . + . . X . .   + + + + + +   $ ; ; $ ",
"              o     o o ; o o . ; B : : ; ; ; ; r w ; ; = : $ + + + O + + X X X X +   X X o + + o + + < + + e + + + ;   ; + o o ",
"                o o   + o + o   = w ; ; : w C w w w : ; q C $ + + + + O + . + X X X + o + $ + + + + 6 + + ; + + + + ; + $ ; + o ",
"          . o   X . + o + o o + ; w : w C B Z C C U U w r Z % ; q = + + + ; O + + + , + + $ + + + e ; q q ; r ; e ; ; ; $ ; + o ",
". . . . . . . $ $ @ $ $ % $ % # s s s v v z j.n j.v.v.G j.j.l n z z b z v b h h z b v h z s h v v d b b G H b v b H v c % $ $ c ",
"  . . . o o o $ U C C : w w w C C C : : c w f 4 ; : w w : C C r w q q ; q h Z C B w - B w w : ; ; ; ; $ % . + + o +   +   + +   ",
"    o o o o o $ i e i 6 + + 6 ; < ; e r r r % < + 6 ; e 6 ; 6 ; q q 6 < 6 h u q e 6 < 6 6 + + + ; ; ; 6 s ; + 5 + + + + O +   + ",
"  . + o + + o @ r i ' 6 < + 6 + < < q q q r s + + + q q + 2 < < 6 q 6 < < a 8 + < < 6 6 6 + 6 6 6 q 6 + # ; < + + 5 + O + O O + ",
"  . ; + = + o . u +.+.< < < 6 < 2 6 < q r r h + < 6 < < < q q q 6 < < 6 < g 2 < < 6 6 6 6 + 6 q r q e 6 s e e < + ; + + O + + e ",
". o $ $ = $ - % - - B - - c - - g M V H b G d h h v h F h F F M F F F M F f.g h V h h h h h F F v v h g x G H H c v c ; c % $ c ",
". . = = : = - - : B 4 4 w 4 h = + 3 = 3 = : w B = 4 B 4 - v N D D K H D V D V B g g c F n B.Z V Z V B c : B : : : ; $ $ $ o o o ",
"X + < 6 i < < r { { 2 < < 2 m + < 2 2 6 6 t 6 t t t u u t D V t t t t 2 6 q 6 6 6 < < + S n.6 6 q 8 8 8 6 6 + + , + + X $   X   ",
"  X 6 e t 2 < t %.%.< 2 6 8 V < 2 2 < < 2 8 6 t t u u u t D M t y r q 2 < < < 6 < 6 < , S b 6 8 6 6 6 6 6 5 5 , , O X X @ o X X ",
"  O 1 ! ] ! ] :.>.] 2 1 2 t V < 2 8 8 8 u t u i t ` +.u u D V _ i t t t 8 6 1 < 6 < < < w z 6 6 5 6 6 5 , O O O X , O + $ . X X ",
". o + + 2 < 4 y y ' 4 4 4 A G m V K 8.T R 8.Q.Q.(.Q.Q.R 8.S.z V B V V D V D V A D B D V F j.Z C Z C U C C U I U w w : : % ; o ; ",
"o = 3 3 4 4 4 * - = = * g g a M N M a f M * g.b.j.b.v.m.m.m.J F F F F G J c.g a h h d h h h g % s g % % l s s * % - $ * & @ . o ",
"X > ! / / ) ) * 1 1 1 1 X 1 X < < 1 2 2 2 2 j ) y ,.S i r _ q t t t t e 3 m.> O > , > O O O , O O O O , z X , O , X O X X X X o ",
"X X 1 1 / [ ! f 2 1 1 1 1 X X 1 1 < < < 2 2 N 1 < q i i _ u t t t t t 3 2 v.O , , > O O > > X O , O , O z , , X X X X X X   X   ",
"X   > , 1 2 2 m 1 1 X 1 o 1 < < < 1 < < 2 2 a 2 2 r t q t t t 6 t 6 2 t 2 m.> X > > > , X , O O O O O , l O , , , X X X X X X   ",
". X < 1 2 3 A h < 2 3 < 3 < 3 2 < 3 2 3 4 3 N y 4 w y A w w w w w q w w w b.+ = + > < = + 3 + < + < 6 q f.+ < 4 3 q + = + = ; + ",
". & & 3 - 4 m m m 4 * 4 & * j a N N n x x j.f.l x j.x x f.z.N.m.b.b.m.v.b.G n.G v.v.x v.l.l.j.v.j.n x b j.z h g h h s z k % # = ",
"X X 1 ! / [ [ [ [ ( ! ! ! ! j ) _ t { } 7./.} q.7.<.D t t g.i t +.) t 8 8 8 5 8 8 9 1 5 G w 0 7 7 , , , , , , X X O O r % O O O ",
"X X > 1 ( ( / ( ( ! ! ! ! ! l t _ t y { } 7.} q.7.<.} 2 2 b.< 2 8 8 5 , 1 , , 1 , , , , V 4 7 5 , , O , , X > , X X O w h , O X ",
"o > 2 ! / / / [ / / ! ] / / l _ 4 _ _ _ } } 7.7.7.4.i t t b.2 8 ! < , , , , , 1 5 , 7 5 v = 5 , O , , X O , , , , , O S d O , O ",
"o + 3 2 t _ 3.d.6.q.q.7.7.4.g.7.7.w.8.8.w.w.0././.9.<.S r V.2 6 < 6 8 8 2 6 1 5 6 6 1 1 v B i i P P ,.P ,.i ,.2.,.t i 9.b , 5 , ",
"* * f - g M h x m M M h N n j.j.x N x x j x g.l z l z x x x x x z z l f.f.h.h.h.h.g.g.f.j.x g.f.x l x f.l.N.B.m.B.k.j.k.k.b z z ",
"> > , 2 2 2 , z / ) t _ _ _ _ _ ) { } 4.} S M { } } q 2 t t 1 , , > O X O h 6 , , , , , O O X > O O X X F 7 1 , , , 5 , O O X X ",
"X X < 1 2 2 < N / ! ) _ ) 3 _ _ _ { 4.4.w.{ M { } } y t { t , , X , , X X z , , O X > X X X X X X O X , G > > , > , , O O X O X ",
"o > 2 2 ! ) < M ! ! 2 ) _ { _ { { { 4./.4./.z { { ' t < t 1 1 , > > X O > h , > O O > , > , O X X X > > F , > > > X X , O O X X ",
"> , < > t 2 4 N t ] { } 7.w.q.7.q.4.w.d.w.q.G } } 4.{ 8 8 t 7 1 , 1 1 , 1 h , < 1 5 , , 1 5 , 1 , , , , G , > , , X X X X O O X ",
"* * @ * # * a z d z d d N a f.x x x x j.j.v.N N n G G G z x x f.x j.j.k.j.l.N.B.B.G.B.B.Y.E.G.J.L.G.J.J.x.b.k.N.v.x j.x z n b h ",
"X   X X X X X 2 1 3 < < 2 _ N = y { y t y 2 2 , , O , X > 4 o , , X > > > > X > > > > > = * , > > > , X > X X > X X O 3 h , X > ",
"    X X X X , , < 1 < 2 2 2 N = t t _ t t 2 2 2 , , , , > B o > X X X X X X X X X X X > 3 * > > > > X > X > > X > > > + z X , X ",
"  X o > X < , , 1 < < 1 2 2 N 2 t t 2 t 2 2 < , 2 > X > > B o > > > X X > X > X X > X X = * > > , > > > X X , X X X > + h , , > ",
"  X X X X < 2 t t _ 2 / _ { v.3 y _ _ _ _ { ` ) ) 2 , 1 , S o O X X X > > > > , , , , , = * > > X > > , , > > X > > > < h , , , ",
"f h d z f.g.b.l.N.N.G n v.j.l.b.g.b.j.n j.g.k.k.b.b.b.n.k.b.x l n x f.f.g.l.f.k.g.j.k.x.h.f.x g.x g.j.x.x.x.V.H.H.x.b.N.z.m.m.G ",
"O O + > < 3 t M ) < _ 2 t t ) ) _ 6._ _ y t M 8 6 < < < , , O O O < , 1 6 N u u  .~ ` 0 ^ 0  .5 0 0 u 0 v.1.@.*.1.5.e.1.1.+.e P ",
"  X X O , 2 2 g 2 2 2 2 2 2 8 _ 3.3.) _ t 1 h O , O O X X > X X O O , , , h 7 7 7 1 7 7 1 7 7 7 7 7 7 7 v.8 1 7 7 , 5 , , , O O ",
"X   X X + > 2 * 2 2 ) 2 8 2 2 8 3.' 2 2 8 < m 1 , , O X > X X X O , , , 1 h 7 7 7 7 1 7 , 7 7 , 7 7 7 7 x 9 7 7 7 1 , 5 O , O X ",
"X X , X > < 2 s t t y t ` t ] %.6.3.` ) ` 8 M 1 1 O , O O X , , , , 9 7 1 V 8 ~ ^ ~ 9 Q 9 7 9 9 7 7 7 9 G 9 7 7 7 , , 5 , , 5 X ",
"a a a a h h z f.G z z m.n.n.n.B.J.J.R.H.m.B.N.z x z z h G z n G m.J.K.L.K.N.B.B.S.Z.G m.J.H.B.Z.G.G.m.G.V.B.B.x.b.G n n n n v h ",
"+ > < < < 6 2 2 < t 2 t t 3 y J a.]..X].q.a.2.6.,.,.u e t y h O O , < < 8 8 8 @.u O.@.@.+.G e.r.t.t.1.O.+.0 7 0 8 0 5 6 v 6 + 6 ",
". X + O + , < < 1 < 1 8 8 t w F ' +.{ ` 8 ! 8 8 5 , , , O , g , X , , 1 1 Q 7 8 9 Q Q 9 @.n @.O.O. .o.9 | 9 9 9 9 9 7 9 - , O O ",
"o o O , , , < < 5 8 8 8 t u y F %._ ' t +.8 8 9 , , , X , < m , > , , , 1 7 Q Q Q 9 9 1 0 h #.0 9 | 9 | ~ 9 ~ 9 7 9 9 9 - , 5 O ",
"o O + , < < u 8 u ' ` u +.,.S F 3.u +.' ` 0 6 1 5 , , O , 2 V , , , 1 1 9 9 | ~ $.~ Q  . .G @.O.L  ..... .X.X.o.| ~ 9 0 s O O O ",
"h d h z F v.n.n.G F H F J n.V.k.n n b.J.Z.n.M.v.n.G G n.n.b.b.G F G m.n.m.L.L.J.R.T.R.L.R.c.G.U.W.I.W.oXoX[.oXOX[._.).'.j.v c c ",
"o o o < 3 w w a < < 3 q t q q r q y 3 < < < z i y i 3 6 q q 3 q 3 r A } A v., 6 6 8 u 0 t 8 8 8 O.0 O.u G r q t w t r 4 q q = = ",
"X X X O < 6 8 h < < 8 t u t u u y ' 8 < , < v 8 5 , , , > X > X , , 5 ~ ` G 5 Q ^ ~ O. .~ ! X. ...-.| X.C.5 7 1 , 7 1 O O , O , ",
"X X X X , < 6 d < 1 6 8 t 6 t +.t ` 8 8 1 1 h 8 5 , O O X X > > X , 5 Q ^ n 7 ^ *.*.;.*.;.O.@.&. .O.0 ..J 7 9 ~ 7 5 5 , , , O O ",
"X O X O , 6 8 h O < 8 8 i ` ' ' ' r u u 8 8 V 1 , , X , , X > X , > 5 8 0 h 8 ;.#.s.r.s.s.5.r.r.;.;.{.y.Y 0  .0 7 0 5 1 5 , O O ",
"$ % % % % h b l h g v G J J F.!.S.!.A.A.S.!.x.v.b b b z z F G v.n.G n.Z.F.c.Y A.J F.I.U.U.I.[.[.XXOX+X XK.h B c w - = $ $ = = + ",
"o o X   o O + + < + < + < < z 4 w q = < < 3 + + + + + + o x g 4 4 4 3 3 q < = r q q q 6 g b t e u r r r q q q ; ; + ; # d = = = ",
"  X X   o O O < , , < , 6 6 g < 8 5 6 1 < 1 , , > X X X X N = > , O , , , , 5 8 8 8 u 8 w h 0 0 0 0 0 0 9 7 9 7 7 5 X 5 s , O X ",
"    X X X X , , O < , < < 8 - < 8 8 6 1 1 , 5 , > X X X > N = > , X > , O 5 5 7 8 8 0 0 w v 0 0 0 0 8 0 0 7 9 5 5 5 , O # 5 O + ",
"  X   X X X O + + , , < 6 t s O 6 5 6 6 5 6 , , , , , X X h * > , , X , O 5 7 0 8 0 0 u w h 0 8 0 7 7 7 7 8 7 5 5 O , O # 5 X X ",
". . . . o o & - & = % - g g f.h V v m B m m c B 4 m c V V j.f.B h m F v F F J H H U Y D.n.l B Z c v C w B B w r w c c : a ; = o ",
"          o   % 4 4 : C A w S D K Z H Z Z V j.D Z D g B g c g - B 4 : - V j.T W P.i.D.W W i.P.E R E U E n c c c c c : % ; $ $ - ",
"        X   X * , 6 6 6 t u e e u L +.L L 2.h 0 1 8 , , , , , , 5 5 5 7 0 j.@.#.e.=.=.=.r.y.e.#.e.=.L #.H e e 8 0 8 8 5 6 , O + ",
"    X     X   $ + < O 6 6 e 8 ` u u e 0 u 1.h 7 5 7 O , , , , , 5 , , 7 8 j.O.#.e.u.e.t.e.e.#.L #.@.#.#.v e L 0 e e 5 + 5 , + X ",
"            X - O 6 6 6 8 u e P +.+.+.u u P b 0 5 7 5 O 5 5 , 5 5 5 7 8 8 k.L P u.{.{.}.p.e.=.=.e.y.=.P v e e e e e 6 + + 5 O O ",
"      . . o $ s c v v F Y A.P.D.~.P.D.D.A.).k.H H E T Z U 0.T T E W Y Y U c.D.P.P.|.`.P.`.`.|. X|.^.|. Xj.: w ; e ; ; ; ; + + o ",
".       o o o o . + = o + = d $ - - = B B g - = = - g g s l.z = % c : % c % c : ; : : % d f.v B v U B v v Z v v c c c s $ ; $ $ ",
"  X       X   X + X + O X O g X , , < , 6 , O O , O O O X v = O O + 5 + 5 5 5 8 8 e 6 e ; d e L e e e L 0 e e e e e 6 + $ + + + "
};
