/* XPM */
static char *result[] = {
/* columns rows colors chars-per-pixel */
"64 64 237 2 ",
"   c #010201",
".  c #0A0602",
"X  c #050904",
"o  c #0C0A04",
"O  c #050D0B",
"+  c #0C0E0A",
"@  c #110701",
"#  c #130C05",
"$  c #1B0D04",
"%  c #130F08",
"&  c #1A0F08",
"*  c #0B100C",
"=  c #161007",
"-  c #1B1107",
";  c #14120A",
":  c #1B140B",
">  c #1E180E",
",  c #091313",
"<  c #0B1313",
"1  c #1D1A11",
"2  c #161818",
"3  c #13191D",
"4  c #230E04",
"5  c #2B0D02",
"6  c #340E01",
"7  c #231106",
"8  c #2D1306",
"9  c #23150B",
"0  c #2C150A",
"q  c #24190E",
"w  c #2B1A0D",
"e  c #341104",
"r  c #371706",
"t  c #33150A",
"y  c #321B0E",
"u  c #3B1C0C",
"i  c #241B12",
"p  c #2B1D12",
"a  c #251C1A",
"s  c #321E12",
"d  c #3E1E10",
"f  c #3B220E",
"g  c #262016",
"h  c #2C2115",
"j  c #2D2419",
"k  c #332315",
"l  c #3B2414",
"z  c #3D2917",
"x  c #33251A",
"c  c #3A261A",
"v  c #35291B",
"b  c #3C2C1C",
"n  c #3F301E",
"m  c #191C21",
"M  c #1F2026",
"N  c #25242A",
"B  c #372E23",
"V  c #3C2D20",
"C  c #3E3121",
"Z  c #3C332B",
"A  c #2D2A30",
"S  c #471C09",
"D  c #571F09",
"F  c #46210E",
"G  c #54230D",
"H  c #442412",
"J  c #472815",
"K  c #4A2B15",
"L  c #432D1B",
"P  c #4B2C1A",
"I  c #532915",
"U  c #5B2C15",
"Y  c #522D19",
"T  c #483016",
"R  c #44311E",
"E  c #4B321E",
"W  c #54321B",
"Q  c #5D351D",
"!  c #6B260C",
"~  c #632C14",
"^  c #6D2D13",
"/  c #722B10",
"(  c #67361A",
")  c #76381B",
"_  c #443322",
"`  c #463227",
"'  c #4A3522",
"]  c #4B3925",
"[  c #46372A",
"{  c #4E3C2A",
"}  c #533522",
"|  c #533A25",
" . c #5B3825",
".. c #5B3A24",
"X. c #533D2A",
"o. c #623D24",
"O. c #6C3B23",
"+. c #763F23",
"@. c #584026",
"#. c #54412B",
"$. c #5D442C",
"%. c #5A4633",
"&. c #6C4226",
"*. c #62442C",
"=. c #68472B",
"-. c #6B442C",
";. c #744427",
":. c #744A2B",
">. c #7C4A2B",
",. c #7E502F",
"<. c #644B34",
"1. c #694C32",
"2. c #654F39",
"3. c #754930",
"4. c #734D32",
"5. c #6A5136",
"6. c #6B533A",
"7. c #745336",
"8. c #7C5333",
"9. c #7C5339",
"0. c #74593C",
"q. c #7C5A3B",
"w. c #453641",
"e. c #544457",
"r. c #6B5540",
"t. c #775D42",
"y. c #7D6246",
"u. c #776C73",
"i. c #8C380E",
"p. c #893919",
"a. c #A03D15",
"s. c #94451F",
"d. c #864A28",
"f. c #984C29",
"g. c #82512E",
"h. c #98502A",
"j. c #844D31",
"k. c #825535",
"l. c #865937",
"z. c #8D5C3A",
"x. c #975B36",
"c. c #A7562D",
"v. c #AA552C",
"b. c #B65933",
"n. c #89623D",
"m. c #94613C",
"M. c #9B633D",
"N. c #B9612B",
"B. c #A96539",
"V. c #B66838",
"C. c #CB6631",
"Z. c #875640",
"A. c #856144",
"S. c #8B6443",
"D. c #896A4A",
"F. c #976945",
"G. c #936B4A",
"H. c #96714D",
"J. c #9D724C",
"K. c #866D51",
"L. c #8D7155",
"P. c #9A7451",
"I. c #977859",
"U. c #A46A44",
"Y. c #B46E44",
"T. c #A5744C",
"R. c #A8754A",
"E. c #B77648",
"W. c #A77B56",
"Q. c #B57D56",
"!. c #AD7F61",
"~. c #CA7747",
"^. c #CB794B",
"/. c #AC845B",
"(. c #B6865B",
"). c #998167",
"_. c #A68564",
"`. c #B88C67",
"'. c #B4916D",
"]. c #BC926D",
"[. c #B79775",
"{. c #C28659",
"}. c #C98759",
"|. c #CF8F59",
" X c #D48C56",
".X c #ED934C",
"XX c #EB8D50",
"oX c #EB9A59",
"OX c #C58C62",
"+X c #D88C62",
"@X c #C7936A",
"#X c #D69467",
"$X c #DC9A6B",
"%X c #C79975",
"&X c #D69B74",
"*X c #E59867",
"=X c #F19C6B",
"-X c #CBA27D",
";X c #D7A277",
":X c #ECA369",
">X c #E8A676",
",X c #FCA773",
"<X c #EFB17A",
"1X c #867E86",
"2X c #8A8187",
"3X c #938A94",
"4X c #B2ABB1",
"5X c #CAA987",
"6X c #D7AA86",
"7X c #DAB18A",
"8X c #CCB194",
"9X c #D9B796",
"0X c #E7AA83",
"qX c #E5B58E",
"wX c #F5B887",
"eX c #E8BA98",
"rX c #F7BC94",
"tX c #E8C39E",
"yX c #F7C39B",
"uX c #D8C2A6",
"iX c #E6C7A7",
"pX c #ECC9AA",
"aX c #F6CAA6",
"sX c #F9D2AD",
"dX c #E5CDB2",
"fX c #F5CEB4",
"gX c #EBD4BA",
"hX c #F3D2B4",
"jX c #F6D8BB",
"kX c #DBD7DA",
"lX c #EFDBC4",
"zX c #F8DDC3",
"xX c #F5E1C8",
"cX c #FAE4CC",
"vX c #FDE7D1",
"bX c #EDE8EA",
"nX c #FEFEFF",
/* pixels */
"                                                X X O O , , , , , , , O O O   X                                                 ",
"                                              X X X O , , 3 m m 3 3 < , , O X X X X X                                           ",
"                                            X     O , , m m N A N M m m , O O                                                   ",
"                                            X X O , , m Z 1X4X4X4X3Xw.N 3 , O O X X X                                           ",
"                                          X     O , u.kXnXnXnXnXnXnXnXkX1X3 O O X   X X                                         ",
"                                            X O O a bXnXnXnXnXnXnXnXnXnXnXu.* O X X                                             ",
"                                        X     O , a bXnXnXnXnXnXnXnXnXnXnXu., O X                                               ",
"                                          X   O O , w.4XbXnXnXnXnXnXnXkX2X3 O X X O       X                                     ",
"                                        X X   X O , < 3 N e.2X3X3Xu.w.m < , O O X O           X                                 ",
"                                            X X X O , < 3 m m M m m 3 3 , , O .     X                                           ",
"                                    X   X X X O + + ; 2 2 2 M m 2 2 < < < % O . X X X                                           ",
"                                    X X X X . % : i a c ` ` [ X.Z N j c t a & 4 % o o O X   X                                   ",
"                                X   X o + : a x V ' { 2.9.K.L.t.0.l.j.O.X.` A a > ; % o . X   X                                 ",
"                              O o X + % 1 s ` X.6.L.!.].5X8X9XuX9X9X5X%XW.<.O.` V x a & + . +   X     X                         ",
"                      X   X o * o + a s V  .3.Z.!.5XeXiXhXjXxXcXzXzXfXtX6X!.W.Z.O.X.c a 9 2 # % . X   X                         ",
"                        X o + ; 1 1 s E X.-.F.W.5X9XpXfXzXcXvXvXzXzXzXfXqX`.5XQ.z.+. .H s x i & @ . X X                         ",
"                        + + ; : g b $.*.6.S.Q.%X7XiXgXlXcXlXxXdXlXzXzXzXeX6X0X6X!.x.S.r.} b a 9 $ @ . X   X                     ",
"                  X X + ; ; i i B j X.5.t.K._.[.5X8X5X@X8XdXlXlXdXlXuXiXpXuX6X!.W.Z.3.} ' R a 0 7 # @ . o X                     ",
"              X . o # ; : w f L o.&.,.m.P._.!.&X<XrXsXjXlXjXgXxXgXlXfXaXeX7X&X0X6XOXU.x.4.o.P L k w : : @ o X X                 ",
"          X X X o o & > = e e G / i.c.V.}.].[.6X9XtXpXjXjXiXdXgXhXzXfXfXrXrXrXaX0X&Xb.f.f./ / I K z w q & @ . X   X             ",
"        X X X . + ; q 9 # e r G / p.f.b.^.Q.5X0XtXyXaXyXsX9XiXjXfXpXfXaX=X,X,XwX0X*Xb.v.p.i.) O. .H t p ; @ @ o .               ",
"        X X o o ; ; i i $ 5 6 G i.+.p.a.b.}.5X*X<XyXtXyXsXsXiXjXdX>XyX,X^.XX,X>XeX*XC.b.v.s.) ^  .I u b q $ # o . X X           ",
"      X X X . . ; > > k w 6 S G D ! ! ) h.`.].%X7X7X-XtXpX9X8X8X9X5X0XrXwX0X0X9X5X^.b.b.N.M.>.( Q E l k w : ; % . X X X         ",
"      X   X X ; = > h h ' R [ Z ; x t.(.W.F.W.%X-X<X9XtXtXpXsXtXjXxXiXqX%X5X`.@X@X!.P.P.A.n l Q  .' L c q i ; o ; % . . X       ",
"X   X X o + X o % 1 a k L v X.t.t.2.S.R.#X#XE.W.#X:X.X<XyXyXtXyXwX<X:XoX7XyX$X#X+X^.~.C.B.k.4.g.g.&...T l p > * : ; o o . X   X ",
"      X o + o @ % 9 w l _ *.q.A.K.8.U.b.{.>X&X$X#X#XXXOX X;XoX:XoX.X#X:X-XtX*X^.+X+Xb.N.c.G.F.x.d.^ U G H l q ; > : # o . . X   ",
"    X . + o X % : q x l ' *.$.6.$.7.M.B.E.W.(.@X}.J.,.V.|.;X<XoX.XoX.X.X%XXXC.~.Y.B.V.U.M.S.S.l.>.) ( Y J f h : a > + + . X     ",
"  X     X . X o i a ; c _ X.%.2.%.$.8.4.q.H.F._.L.+.B.~.V.$X$X|.|.$X|.OX(.$X}.F.X.$.A.G.m.Z.X.v E &.Q T z z w ; i > + o .   X X ",
"X o + + ; ; ; 1 % v : C 6.y.K.K.K.I._._.[.).)._.8X;X]./.].].%X/././.`.`.[.].(.(.(.|.Q.U.&.4.@.&.:.T E R _ L a k q 1 ; o X X X X ",
"+ + & ; ; q p c L _ j ; ] q.S.D.P.P.T.R.Y.-X5X'.E.{./.I.D./././.T. X X;X;X@X~.}.}.V.U.U.M.z.k.) ! G U n x L k 0 $ % ; + + o o X ",
"  X . o @ & : 9 0 t c j E Y W -.=.8.z.l.x.].'./.E.N.V.{.E./.T.E.(.}. X|.{.{.|.(.E.Y.R.U.h.d.>.) ! D G v } u t 7 7 # % o . o X . ",
"    o . @ # $ 7 4 t c i L J W o.4.7.l.m.x.5.J.V.B.c.V.J.U.V.V.V.V.V.E.F.R.E.Y.c.R.b.M.h.h.j.>.) ~ G G R Y t 8 8 9 & : @ @ . .   ",
"  . . . . & & & 7 w L a d L U ..=.,.q.7.q.).5.y.:.B.B.M.l.B.V.N.n.V.(.M.M.x.h.c.x.h.f.d.) +.o.O.^ F Y E E y 8 0 9 : $ % # o o X ",
"X + . O o @ # # @ 8 b p k c L ' _ @.$.2.y./.0.n.y.:.n q.m.H.F.n./.H.n.H././.n.q.A.9.;.3.U o.2.X.o.X._ a h i % o : ; X ; % o + X ",
"+ . % @ # & 9 9 s x P J '  .L [ 5.y.n./.J.n.m.@.5.T ( @.n.M.J.Q./.B././.0.H./.M.U.U.f.p.p.! X.` 7.j.-.Q J l l q a y q 7 . . X . ",
"o o @ @ @ # & p p c _ F I J I &.@.@.=.:.:.q.d.n./.h.B.M.M.H.l.4.:.:.,.q.6.M.m.m.x.j.+./ ^ O.X.1.d.Q W H H l p p q 9 @ . . .   X ",
". o + . @ % : 9 p w d F S S I U E T ( ( o.&.) +.( :.) d.,.>.:.;.8.8.1.<.0.n.n.n.j.j.) ~ ~ &.%.=...Y K F f w 0 9 q p @ . . . . X ",
". o . . o @ & i 9 0 t e r S H Y ] k =.o.( U ( :.&.+.:.:.g.k.k.q.4.$.T #.r.5.8.8.9.4.-.=.-.Q X.| Q K H l l y 0 = % 9 @ . . . .   ",
". o + . @ % % & i i a 0 s s l d R n Q 0.5.<.=.5.0.<.=.( Q *.*.1.1.#.%.2.).t.q.q.q.6.$.$...c j j i z k q h q - ; p ; o . X X     ",
"% : . 1 ; 9 p c s _ } X.$.$.6.1.0.2.n R $.@.] z ] @.@.W ..$.2.#.#.$.q.H.5.#.n q [ ] ' ] ] #.{ X.v h % o q ; : 9 p q 9 i ; % % % ",
". & & % o + # # - : 9 y L P $.K T T P X.} [ c P  .o.) ( G u n E Z #.Q $.*.*.| *.*.$. .X.$.[ ' R L z q q p 7 p i i > 1 % % o X X ",
". . @ X + o # # ; : $ 9 p i v s w w w 0 t v _ } I W W U k p ; > i C T | | ..P } } } ' { L l z y 9 9 w k x a p > q & 9 % % o X   ",
".   .   X . # # = - : 9 p i g 9 w 0 y y c j V _ T W I P Q | X.R [ C b C _ [ P ' L ' L t 8 l k g 7 9 - q h : 0 9 > ; : % o o X X ",
"  X o X + + X * ; : 7 9 i i i 1 q h h i [ 6.#.v R b E n b v X.2.[ g g j j ` [ ' _ c s p h y h p : > k q o q # % . o o . . X X   ",
"X + = : p i a q w q q k v j n n C n v n _ ] ] C n n R E W 1.$.1.q.0.<.B #.#._ R ' | _ ` L a + 7 k L h k l J p : ; $ & $ # @ @ + ",
"+   o o & & - q w f T T n T R &.o.&.=.I T i i n b E K J T T T z f G o.$.v v L k F u F e H k R o.U r u w 8 5 4 ; : : $ $ @ . . . ",
"X   X . o # = + = - 7 y j h q h p y r f f g 1 x b l r L b v z ] f H u F g 1 1 r e e 5 6 5 7 s i w 0 8 4 8 9 4 7 . : $ . . . .   ",
"    X . # % = o o = - - > q 0 9 q 0 8 y k R b h c y u y p v z k k f r 9 > > g 8 8 5 4 4 9 0 g i 9 : w 0 i : & $ o % @ o .   . . ",
"X     . . . + . = % ; : q > > > q q w q > k n : w 8 s s h k h y p y s q q j h y 4 8 4 5 9 9 1 ; 1 > ; > * ; + * o = o @ . X     ",
"  X       X X X   X o ; 1 g h 1 : q q > # X ; # o = : : q - = q j : 9 % b p i q w 9 7 q i q 1 j i + O ; ; > : : : ; o     X X   ",
"X X X . X   % o . ; + > > q q j h h k k > > > : g > q q q > > = . q p k L l l k y f y w i k L T ] E z h l r y w q - : - # @ . . ",
"X o o o % o ; @ + % o - - - 7 : - q w w > = > > q q h s q q - o 7 q p 9 i 0 7 7 7 = $ 4 k 9 7 7 - $ ; : 7 $ $ # @ @ o o . . X . ",
"    X . o . % # o + ; o = % @ - - - 9 q q q > q g p h h p q i h k p k q 9 7 $ - 8 4 7 7 7 7 - $ $ : # # - $ $ @ @ @ . . . . .   ",
"  . o o X X @ @ o = + % : = % @ = = - q q i i h i h g g h : > q : 7 9 9 = - 7 7 $ $ $ $ 7 $ - $ $ $ $ o : $ # @ @ . . . .     . ",
"  X . o o . . o # X X = # = # # # = = = = h i i q 1 > 1 q q b w - > 9 p w 9 7 7 7 q - = - - = - - $ # X # @ @ X . .   .   X   . ",
"% o ; o # - ; ; = - = : - : 9 : > q w h z z k f l l h z n x q h j :     : k h q q q q p q 9 - # # - 7 w # % .       . . .   .   ",
"X o o . . o . . o = : : : = : q q : > > > > : q : : - = - - : - 9 l b p p : ; : - - - - : = # > w 7 $ $ $ #   X . . X     .     ",
"X . .   . . . . . . . o # # # : + ; ; ; ; : = : > - = = o ; ; : = - : ; : - : = : ; ; = = = = - # # @ . . @ . . . o X       X   ",
". . .   .   . . X . . % @ # # = = ; : - ; = = - : = ; o = o = = : ; = 1 = > : = = ; ; + = = ; = @ @ @ @ @ . X   X X     X   X   ",
"X . o     . . . . . . . . o = = o = ; : ; = = = o o o     X * ; + ; ; : i ; = # o ; * = = * * * o . o . . X X X X X X X     X   ",
"      .       .               o   X X X . . X X X         + X     X o + = o # * . o o X X X o o X X X X X   X X . o   . .     X ",
"                                          X o o =   X o X   X o - = = = X X X X . o o o = : ; = . o . o . o % . X o o o . .   X ",
"X     X     X   .         X   .   X       + = o o = : ; = X   X o o = = # @ o o o . + = o o o o . o @ X . o . . X . . . . X .   ",
"        .       X . X X . + . @ o o o X     o # o = = o o +   X o . . + o o o . . X o o . . . . . . . . X . o   X X   X       X "
};
