/* XPM */
static char *result[] = {
/* columns rows colors chars-per-pixel */
"64 64 103 2 ",
"   c black",
".  c #010000",
"X  c #020000",
"o  c #030000",
"O  c #040000",
"+  c #050000",
"@  c #060000",
"#  c #070000",
"$  c #080000",
"%  c #090000",
"&  c #0A0000",
"*  c #0B0000",
"=  c #0C0000",
"-  c #0D0000",
";  c #0E0000",
":  c #0F0000",
">  c #100000",
",  c #110000",
"<  c #120000",
"1  c #130000",
"2  c #140000",
"3  c #150000",
"4  c #160000",
"5  c #170000",
"6  c #180000",
"7  c #190000",
"8  c #1A0000",
"9  c #1B0000",
"0  c #1C0000",
"q  c #1D0000",
"w  c #1E0000",
"e  c #1F0000",
"r  c #200000",
"t  c #210000",
"y  c #220000",
"u  c #230000",
"i  c #240000",
"p  c #250000",
"a  c #260000",
"s  c #270000",
"d  c #280000",
"f  c #290000",
"g  c #2A0000",
"h  c #2B0000",
"j  c #2C0000",
"k  c #2D0000",
"l  c #2E0000",
"z  c #2F0000",
"x  c #300000",
"c  c #310000",
"v  c #320000",
"b  c #330000",
"n  c #340000",
"m  c #350000",
"M  c #360000",
"N  c #370000",
"B  c #380000",
"V  c #390000",
"C  c #3A0000",
"Z  c #3B0000",
"A  c #3C0000",
"S  c #3D0000",
"D  c #3E0000",
"F  c #3F0000",
"G  c #400000",
"H  c #410000",
"J  c #420000",
"K  c #430000",
"L  c #440000",
"P  c #450000",
"I  c #470000",
"U  c #480000",
"Y  c #490000",
"T  c #4A0000",
"R  c #4B0000",
"E  c #4C0000",
"W  c #4E0000",
"Q  c #500000",
"!  c #510000",
"~  c #530000",
"^  c #540000",
"/  c #550000",
"(  c #560000",
")  c #580000",
"_  c #590000",
"`  c #5B0000",
"'  c #5C0000",
"]  c #5D0000",
"[  c #5E0000",
"{  c #600000",
"}  c #610000",
"|  c #630000",
" . c #650000",
".. c #670000",
"X. c #690000",
"o. c #6A0000",
"O. c #6C0000",
"+. c #6E0000",
"@. c #6F0000",
"#. c #700000",
"$. c #720000",
"%. c #750000",
"&. c #7B0000",
/* pixels */
"                            & 2                                                                         @ *                     ",
"] B F J L M f F + T K D L I n c m Z b V b k s X d i f t u 0 y 8 p v p h r k 0 3 6 u a f 0 g 3 a r r h a 2 8   y s e 5 y G h n n ",
"~ ~ ..L N R I T   R Y B Q I E S N | ( A Y / g $ g k p y p n N c M x x ~ k k 6 X w g k i r w 0 k k v y 0 d y   l 8 y q y e f t y ",
"M T { | U O.S T   Z H F K H U v M W L I ! N g & r f y f k z n i v v F F I k f   a a a d f C r j a 5 v 6 w 8   n 9 j f 8 y i u u ",
"Q P U Q ' } T I   H A K L ! R B W ~ Z L x j D ; f w n w z k x d y d g k i v z $ u 7 9 p s w 0 m 0 s 8 4 9 9   I 7 < 8 9 e y 6 a ",
"                                                                                                              @           o     ",
"p   W Q U S M x f D b H c D l C + c f i A y h k h z b k V Y f f h i f f 0 r e p f t 6 p w 6 3 k y I c H d d w r 3 q 8 s k j , j ",
"~   I R Q K J m F ! U F ^ W F Q @ S G n U G V M T n v W W D i 5 % k f g k c g x v K t p j p d   e s l j 5 u f x p f t w y s + w ",
"E X L U P ! M R N V H Y Y L o.D & p G W S L k V c C Z ` _ ( A ; z z c L p t m M H C g f e f u   d v y j s d l g f s t f a 5 @ y ",
"R   J ~ ^ [ U L b Y ( O.L ~ J !   k F N ! J F L v ` U L U D L * G w f v d h C C g i t j p h y   p f c a c j p l w e 0 i e 8 & 0 ",
"    o : - & = . o : *     . o               o       & $ & + X     #                                                           . ",
"& * 6 * @ $ $ & 0 x 0 s a b p s r p k e j p 7   d 0 5 p a 9 y , 8 J z 0 8 5 u ; < a < < = 6 , 5 l 2 > 2 2 =   g 8 : - & : & 2 , ",
"p v r h u M s p , Y P W ..W ( | W Q D ! W J A   ; a G Y l F p d N v v n V V v - a s p v p t r y r m q l t p   - t 6 r 7 e y 8 8 ",
"g T f A V M c 9 p J W T L W { W ..} / E U A v   * T Y B V V A P N D n G l h z * k c f h p j z i v l f k k y   : 0 v 7 r e f 5 r ",
"D T v Z D H D u   K Y _ ] O...@.W / [ F ) U I   3 k F C J l K x V a S b k f p 4 t f n f x d a h f k f t w t   3 a 3 q 6 w 4 y 8 ",
"8 2 8 2 3 9 : O   8 : 7 6 > 3 0 4 q > 8 - + <   o 5 o , $ . & 6 & # +     o       * o + $ . X $     . X . +   5 @ @ # O & & o @ ",
"    , y = , $ % = : ; @ , 2 ; :   i x f v h S y H u h k f m k w J r 9 3 q 6 5 9 1 , 3 f q 8 e e k p p < = + + X + @   > : 1 = . ",
"S   k B v H P v N M W g V A v J   N Z M x m B B W H J L B N D 1 K h f p R e p r e f 0 p a w 6   8 k p a r c p f q 7 f q 5 e - 6 ",
"b   T ! W R m C Z G m d n K A L   n V P L P S k F f b B z n s r u v d i Z j t b u Z f b 7 y 9   f b d y M p 8 8 i d w z a m 5 e ",
"f   A C F Y L ~ H H U B D Q B E   F K L / D Z A R l z z U k v 9 F l b d v B n p j w k r e 8 4   w f v p k F y r j u B g y j > i ",
"9   k w c n i y f i v r 5 w w p   6 w 2 w 4 0 - * < 1 6 0 8 ,   6 0 : 2 1 ; * - @ @ O ; q > &   1 * * $ ; : + $ @ - , , 6 3 2 3 ",
"1 5 3 4 , 1 1 #   @ + +   & o + % # 0 < 2 2 -   x 4 , 7 5 5 6 , 8 e 6 g k g , w $ & 6 $ * : * = O & * * p :     & $ , 3 2 3 5 , ",
"E _ Y Q D ! G a % G / ^ ! D J ..v T ! ~ U ]  .  N v Y Z  .C l B A v Z b E f w 5 a c V x v l x v p z n s B y X < 8 5 w 0 0 e 0 4 ",
"' O...&.$.W ~ d   R H H ! Y ' P W X.E Q ~ ` (   F z C J ) F / c ` R B Z P M 2 w g V g J z A g G D v M Z m Z & q p u 4 b 6 y i 0 ",
"o... .( +.( E D   W ) E ( Q / { { U ) ] { I L o s F L ( K R A A m Z H H C R , l V z m Z G v f B k r c h L p @ 0 k a 8 e w p r w ",
"^ { R o./ _ A v + L G l Y m C D n Y Q x W S k   t j k f a p h r w y h p i y & < 7 e w 8 2 , i 8 t w 0 s c 1 + ; 2 : * & < = 5 1 ",
"                  5                   X = 3 9 w 3 : ; , : : , #   $ =                     . @ & , & - : q 6 e ; ; 1 : 3 - + @ & ",
"M = M l A B L J x n D l J Y S / X 0 z z c x F r c i f v z B p 1 p q 4 6 2 8 7 9 6 6 u 9 3 i 6 @ 4 3 3 5 6 7 5 u 8 r 5 5 0 w   G ",
"R - k G Q B F ` N R I I I T Y C   , s C b i A j h l c y s z P : e 8 8 6 > f 3 5 2 y 5 2 8 2 5   e 3 t g 1 y 1 4 r 2 4 r 8 9 5 l ",
"Q < m B H F Q %.T W A Z U ! H I   3 l G b k C d k q J l w m j & 7 e 6 w 4 j 7 i , t 2 8 7 w 5 o w z 6 h p 8 8 7 r d 8 p i q 1 0 ",
"U @ b T L H G T R  .Y L L H V ~   3 S x g x c d s j Z w p r M , 3 q 8 u 8 4 3 w 1 y 1 : s e 6   8 e w w d z 6 6 0 r 2 r 3 6 % w ",
"                                                              .     &   @ @     * @ $ O   +   . @ & * 4 5 $                   . ",
"l j a f N f x 0 , U b H j p h p f h d n C v u X S k r u k a p a c 7 6 5 7 6 > y e k g d u r y r d f w v f w p 3 5 , w 2 3 v 1 w ",
"H f D H H U S w @ G K D W D U c B T A B D U P   F m f j x g y u j w c u r d % 5 n Z b S { C k x f l v z n d r 7 t 4 y 5 5 u r e ",
"Z n D A C B I 7 o ' L S H K H F R  .Y [ H / H   A v v u k y 1 y 5 f e f 7 p = 1 v f H v j c s i t j d k d i 1 4 p 7 q s 9 8 a 9 ",
"B B N U S L G 4   V h f D F C l A P A m Y C C   g M j n l m c k m d l g j w $ - k C f h l B h k a f f J v g $ 3 8 8 2 9 6 r 8 6 ",
"+ X @ # X *       -   X $ X + * +   $ $ = o +                                           o                           X           ",
",   v w 0 1 2 i 0 n 8 4 & 3 : $ @ p 0 q 3 e : , , C P A _ #.L : i b W Y W T W ( V c f y s w ; V A ! M v v b w v > : 8 , $ & p J ",
"e   ) c m g b x N z t a i r B p = M V S M h D k f j k k b k h   0 p g r d f 0 q r 6 y 3 0 8 @ 9 u v p f s u t 9 p r f 0 f + ; 0 ",
"r   S g m j Z j c x S a k d x a t R a A F N z s G v v R C f d   x u i r p j 6 q 0 7 t e q q o 0 f p t d t d r k p h s u f X % p ",
"k   S b x x l l J G L Z s 4 x k . V T i D S n g f H c k k h r   r f l r f f e 5 8 v 0 q 9 5 X , t p S k y q d p 0 s p d w $ q i ",
"    *   .   o . @ & o   o .     X , 2 ; , 2 , 3 : < * 5 = . X   o $ o   o         @               O o .   & # + $ % * - X   $ @ ",
"h t z w k f M p $ h b B ^ B k k V K H N v Y Y   2 = o & X ; q , V K 8 8 ; p   ! m R C p 5 y u y d 0 r t 7 $ 8 , 8 6 d f 0 0 s h ",
"r 0 k v y g 0 1   y k k j v x A l M v n N S b   p j 6 w u i 7 a p i p a l d < 6 c b j s j a f p f k g k y 4 3 2 7 w t f d 5 k y ",
"h 0 k j u m 0 6   a b k b z z M B N v U c M d   f 6 w x y 0 e p h j a l d k 3 4 c s s d s x v j b k l x d a = w v r r f g x r p ",
"y r j w u j a :   k k Z d c k B k x A b k v F   d r r 9 c r u f k f p V t g : 2 z j N H k g l h v x w h r y 2 3 j q r g 7 a 8 8 ",
"+ * $ # & * = X   3 5 , 1 , 1 3 , 3 5 4 5 5 6   @ ; * : , 4 - p 8 8 5 6 > 6 o X & * ; = - & ; = * ; ; ; =   $ @ X = - $ @ @   = ",
"* r f d 3 4 3 0 < 4 3 . $ & 6 & 0 % o     % @ x w 5 +   3 =   8         O $ @ X v y u 0 8 3 - 8 $ $ ; & ; $ 2 < & o % & o   , & ",
"  , k t i f u x k r u k v L 9 o k f A f s q a t w & p t f s 2 ; w w 2 2 8 e y h 0 5 4 p q y   i y 0 1 3 w a t 5 2 e 0 y 9 X z $ ",
"  f c w 9 g T D n i B h d y s = l j v s x V j z z x v p d p , + w c e q 0 k 8 4 q 5 p u l 9   d u f 6 r a p k 6 q r y w 6 @ * 3 ",
". j v b N f F x H v z n w a a * 3 d N g 1 d y r w r f M t k , , t c w 8 t 5 m i 3 e w 3 g 6   r 3 a s 7 y f V 9 r f 8 0 0 o + , ",
"  5 6 j k r B M v j k y v g f   = f d v q f l k h M 0 0 < i - + 2 8 5 8 8 i w 3 2 7 * 3 @ 9   . * $ % & . & @   # o o   $     = ",
"    & $ # ; *         $ 0 # + ; : : $ 8 = ; *         X 7 & % * l 5 > $ 6     = 2 2 - % O 9 , : 0 - 5 6 ,   9 2 r 3 0 6 1 2 w 6 ",
"p h l c v f 3 ; $ 3 i 3 9 8 u H 0 7 k l v u r   M u r 5 d 6 e y 0 r D u r w   l 3 r z 1 0 r f 8 0 c p q 7 : + 7 , , 3 3 > i r r ",
"f s 0 c ! x w 1   a f d u 8 u r r y C Z c s 9   L y v 6 3 r j i 3 j m f 8 r   f y r h w t y V p a 0 a j t < $ 3 0 8 6 3 q 2 8 p ",
"l A f L H q 8 &   h f w 6 r l j r u g P v p t   G k j y < r c r r b H f q 0   r 5 y w 5 p j p y 7 g g 3 0 , @ w 5 r r y r u 8 q ",
"8 5 3 f i y q +   y y s y l j r k p Z d e 8 ,   f y 8 3 a i e t s k M z p s   j 8 r u k 6 r 1 3 1 6 5 , * @ X w : , > - + = < # ",
"  6 o %   #   . , p $ - @ 1 +   $ o $ : ; + & > 3 o & 5 * +     - @ O & % = & = p . + & , :   $ ; o X X       5 , w 6 4 $   p > ",
". , t 7 p w 8 w i u i 8 6 q 5   p 9 7 0 0 6 p 5 r 0 i k w 8 + o > q 1 1 r 9 p 0 3 e 6 6 , 2   y w 8 : & w 9 3 < 5 0 8 2 5   & 1 ",
"  * f z 8 t y 8 z k t r t u 8   M r c - 5 y f 8 q c f k t 2 &   u 6 v 9 1 f 0 S , e f 1 , 3   q 8 a y , w w p , 7 s p a ,   - 0 ",
"  O p 0 8 q r 0 y z 4 s 5 6 8   p e y 0 y 0 P q 7 9 k ..r 8 @   2 w w 6 t 8 6 i y 5 s 5 1 1   f t u 3 , 0 t w 1 p 9 y 5 w   9 8 ",
"    6 < 5 8 8 0 8 s v p e i r   = 0 p 5 i y e 0 9 9 p N 4 2 o   8 w 7 : r 1 4 1 > 2 - 1 & -   3 , 2 = 1 < 3 1 , 5 3 5 ;     & , ",
"    g +     X #   $ - O = # $ @ @ h @ X * @ O   X     X   X   6 [   o           , , u 2 1 * 0 = 6 q y r q & $ e b k 5 : 5 , > 8 ",
"q 6 w 1 8 a j q   + 8 y 8 , 8 6 i 5 , f 3 q ,   j q t 6 4 e 1 5 w 9 0 q q 8 3 + 2 y p 3 0 w n e : y a y 1 =   1 , 3 , 6 1 8 1 0 "
};
